<mxfile host="app.diagrams.net" agent="Mozilla/5.0 (Macintosh; Intel Mac OS X 10_15_7) AppleWebKit/537.36 (KHTML, like Gecko) Chrome/132.0.0.0 Safari/537.36" version="26.1.1">
  <diagram name="Page-1" id="ibrrmEwT9cAZw2iWcxNl">
    <mxGraphModel dx="2049" dy="696" grid="1" gridSize="10" guides="1" tooltips="1" connect="1" arrows="1" fold="1" page="1" pageScale="1" pageWidth="850" pageHeight="1100" math="0" shadow="0">
      <root>
        <mxCell id="0" />
        <mxCell id="1" parent="0" />
        <mxCell id="OwB3BeWDx1gVw8InTg9T-15" value="" style="edgeStyle=orthogonalEdgeStyle;rounded=0;orthogonalLoop=1;jettySize=auto;html=1;" parent="1" source="5pkW6j4vXnqZqOk_23c1-3" target="OwB3BeWDx1gVw8InTg9T-14" edge="1">
          <mxGeometry relative="1" as="geometry" />
        </mxCell>
        <mxCell id="5pkW6j4vXnqZqOk_23c1-3" value="User requests verification" style="rounded=1;whiteSpace=wrap;html=1;arcSize=40;fontColor=#000000;fillColor=#FFFFFF;strokeColor=light-dark(#000000, #ff9090);" parent="1" vertex="1">
          <mxGeometry x="365" y="270" width="120" height="40" as="geometry" />
        </mxCell>
        <mxCell id="OwB3BeWDx1gVw8InTg9T-30" style="edgeStyle=orthogonalEdgeStyle;rounded=0;orthogonalLoop=1;jettySize=auto;html=1;exitX=0.5;exitY=1;exitDx=0;exitDy=0;entryX=1;entryY=0.5;entryDx=0;entryDy=0;" parent="1" edge="1">
          <mxGeometry relative="1" as="geometry">
            <mxPoint x="644.9999999999998" y="490" as="sourcePoint" />
          </mxGeometry>
        </mxCell>
        <mxCell id="5pkW6j4vXnqZqOk_23c1-47" value="" style="edgeStyle=orthogonalEdgeStyle;rounded=0;orthogonalLoop=1;jettySize=auto;html=1;" parent="1" edge="1">
          <mxGeometry relative="1" as="geometry">
            <mxPoint x="429.9999999999999" y="690" as="sourcePoint" />
          </mxGeometry>
        </mxCell>
        <mxCell id="d-a5o7gupjWQoE0AKnKX-1" style="edgeStyle=orthogonalEdgeStyle;rounded=0;orthogonalLoop=1;jettySize=auto;html=1;exitX=0;exitY=0.5;exitDx=0;exitDy=0;entryX=0.5;entryY=0;entryDx=0;entryDy=0;" parent="1" source="OwB3BeWDx1gVw8InTg9T-14" target="OwB3BeWDx1gVw8InTg9T-22" edge="1">
          <mxGeometry relative="1" as="geometry" />
        </mxCell>
        <mxCell id="d-a5o7gupjWQoE0AKnKX-48" style="edgeStyle=orthogonalEdgeStyle;rounded=0;orthogonalLoop=1;jettySize=auto;html=1;exitX=0.5;exitY=1;exitDx=0;exitDy=0;entryX=0.5;entryY=0;entryDx=0;entryDy=0;" parent="1" source="OwB3BeWDx1gVw8InTg9T-14" target="d-a5o7gupjWQoE0AKnKX-3" edge="1">
          <mxGeometry relative="1" as="geometry" />
        </mxCell>
        <mxCell id="OwB3BeWDx1gVw8InTg9T-14" value="" style="rhombus;" parent="1" vertex="1">
          <mxGeometry x="410" y="330" width="30" height="30" as="geometry" />
        </mxCell>
        <mxCell id="OwB3BeWDx1gVw8InTg9T-20" value="Has the user requested before?" style="text;strokeColor=none;align=center;fillColor=none;html=1;verticalAlign=middle;whiteSpace=wrap;rounded=0;" parent="1" vertex="1">
          <mxGeometry x="470" y="330" width="60" height="30" as="geometry" />
        </mxCell>
        <mxCell id="OwB3BeWDx1gVw8InTg9T-21" value="No" style="text;strokeColor=none;align=center;fillColor=none;html=1;verticalAlign=middle;whiteSpace=wrap;rounded=0;" parent="1" vertex="1">
          <mxGeometry x="435" y="360" width="20" height="10" as="geometry" />
        </mxCell>
        <mxCell id="d-a5o7gupjWQoE0AKnKX-15" value="" style="edgeStyle=orthogonalEdgeStyle;rounded=0;orthogonalLoop=1;jettySize=auto;html=1;" parent="1" source="OwB3BeWDx1gVw8InTg9T-22" target="d-a5o7gupjWQoE0AKnKX-10" edge="1">
          <mxGeometry relative="1" as="geometry" />
        </mxCell>
        <mxCell id="OwB3BeWDx1gVw8InTg9T-22" value="System displays the request status" style="rounded=1;whiteSpace=wrap;html=1;arcSize=40;fontColor=#000000;fillColor=#FFFFFF;strokeColor=light-dark(#000000, #ff9090);" parent="1" vertex="1">
          <mxGeometry x="40" y="450" width="120" height="40" as="geometry" />
        </mxCell>
        <mxCell id="OwB3BeWDx1gVw8InTg9T-28" value="" style="edgeStyle=orthogonalEdgeStyle;rounded=0;orthogonalLoop=1;jettySize=auto;html=1;" parent="1" edge="1">
          <mxGeometry relative="1" as="geometry">
            <mxPoint x="430" y="510" as="sourcePoint" />
          </mxGeometry>
        </mxCell>
        <mxCell id="OwB3BeWDx1gVw8InTg9T-33" value="Yes" style="text;strokeColor=none;align=center;fillColor=none;html=1;verticalAlign=middle;whiteSpace=wrap;rounded=0;" parent="1" vertex="1">
          <mxGeometry x="385" y="330" width="20" height="10" as="geometry" />
        </mxCell>
        <mxCell id="d-a5o7gupjWQoE0AKnKX-49" style="edgeStyle=orthogonalEdgeStyle;rounded=0;orthogonalLoop=1;jettySize=auto;html=1;exitX=0.5;exitY=1;exitDx=0;exitDy=0;entryX=0.5;entryY=0;entryDx=0;entryDy=0;" parent="1" source="d-a5o7gupjWQoE0AKnKX-3" target="d-a5o7gupjWQoE0AKnKX-5" edge="1">
          <mxGeometry relative="1" as="geometry" />
        </mxCell>
        <mxCell id="d-a5o7gupjWQoE0AKnKX-3" value="User provides necessary information" style="rounded=1;whiteSpace=wrap;html=1;arcSize=40;fontColor=#000000;fillColor=#FFFFFF;strokeColor=light-dark(#000000, #ff9090);" parent="1" vertex="1">
          <mxGeometry x="365" y="450" width="120" height="40" as="geometry" />
        </mxCell>
        <mxCell id="d-a5o7gupjWQoE0AKnKX-50" style="edgeStyle=orthogonalEdgeStyle;rounded=0;orthogonalLoop=1;jettySize=auto;html=1;exitX=0.5;exitY=1;exitDx=0;exitDy=0;entryX=0.5;entryY=0;entryDx=0;entryDy=0;" parent="1" source="d-a5o7gupjWQoE0AKnKX-5" target="d-a5o7gupjWQoE0AKnKX-7" edge="1">
          <mxGeometry relative="1" as="geometry" />
        </mxCell>
        <mxCell id="d-a5o7gupjWQoE0AKnKX-5" value="User submits the form" style="rounded=1;whiteSpace=wrap;html=1;arcSize=40;fontColor=#000000;fillColor=#FFFFFF;strokeColor=light-dark(#000000, #ff9090);" parent="1" vertex="1">
          <mxGeometry x="365" y="590" width="120" height="40" as="geometry" />
        </mxCell>
        <mxCell id="d-a5o7gupjWQoE0AKnKX-54" style="edgeStyle=orthogonalEdgeStyle;rounded=0;orthogonalLoop=1;jettySize=auto;html=1;exitX=0.5;exitY=1;exitDx=0;exitDy=0;entryX=1;entryY=0.5;entryDx=0;entryDy=0;" parent="1" source="d-a5o7gupjWQoE0AKnKX-7" target="d-a5o7gupjWQoE0AKnKX-51" edge="1">
          <mxGeometry relative="1" as="geometry" />
        </mxCell>
        <mxCell id="d-a5o7gupjWQoE0AKnKX-7" value="System displays confirmation message" style="rounded=1;whiteSpace=wrap;html=1;arcSize=40;fontColor=#000000;fillColor=#FFFFFF;strokeColor=light-dark(#000000, #ff9090);" parent="1" vertex="1">
          <mxGeometry x="365" y="730" width="120" height="40" as="geometry" />
        </mxCell>
        <mxCell id="d-a5o7gupjWQoE0AKnKX-29" value="" style="edgeStyle=orthogonalEdgeStyle;rounded=0;orthogonalLoop=1;jettySize=auto;html=1;" parent="1" source="d-a5o7gupjWQoE0AKnKX-10" target="d-a5o7gupjWQoE0AKnKX-24" edge="1">
          <mxGeometry relative="1" as="geometry" />
        </mxCell>
        <mxCell id="d-a5o7gupjWQoE0AKnKX-30" style="edgeStyle=orthogonalEdgeStyle;rounded=0;orthogonalLoop=1;jettySize=auto;html=1;exitX=0;exitY=0.5;exitDx=0;exitDy=0;entryX=0.5;entryY=0;entryDx=0;entryDy=0;" parent="1" source="d-a5o7gupjWQoE0AKnKX-10" target="d-a5o7gupjWQoE0AKnKX-22" edge="1">
          <mxGeometry relative="1" as="geometry" />
        </mxCell>
        <mxCell id="d-a5o7gupjWQoE0AKnKX-31" style="edgeStyle=orthogonalEdgeStyle;rounded=0;orthogonalLoop=1;jettySize=auto;html=1;exitX=1;exitY=0.5;exitDx=0;exitDy=0;entryX=0.5;entryY=0;entryDx=0;entryDy=0;" parent="1" source="d-a5o7gupjWQoE0AKnKX-10" target="d-a5o7gupjWQoE0AKnKX-26" edge="1">
          <mxGeometry relative="1" as="geometry" />
        </mxCell>
        <mxCell id="d-a5o7gupjWQoE0AKnKX-10" value="" style="rhombus;" parent="1" vertex="1">
          <mxGeometry x="85" y="530" width="30" height="30" as="geometry" />
        </mxCell>
        <mxCell id="d-a5o7gupjWQoE0AKnKX-12" value="Request Status" style="text;strokeColor=none;align=center;fillColor=none;html=1;verticalAlign=middle;whiteSpace=wrap;rounded=0;" parent="1" vertex="1">
          <mxGeometry x="115" y="505" width="60" height="30" as="geometry" />
        </mxCell>
        <mxCell id="d-a5o7gupjWQoE0AKnKX-57" style="edgeStyle=orthogonalEdgeStyle;rounded=0;orthogonalLoop=1;jettySize=auto;html=1;exitX=0.5;exitY=1;exitDx=0;exitDy=0;entryX=0;entryY=0.5;entryDx=0;entryDy=0;" parent="1" source="d-a5o7gupjWQoE0AKnKX-22" target="d-a5o7gupjWQoE0AKnKX-51" edge="1">
          <mxGeometry relative="1" as="geometry" />
        </mxCell>
        <mxCell id="d-a5o7gupjWQoE0AKnKX-22" value="Display Approval message" style="rounded=1;whiteSpace=wrap;html=1;arcSize=40;fontColor=#000000;fillColor=#FFFFFF;strokeColor=light-dark(#000000, #ff9090);" parent="1" vertex="1">
          <mxGeometry x="-105" y="630" width="120" height="40" as="geometry" />
        </mxCell>
        <mxCell id="d-a5o7gupjWQoE0AKnKX-44" value="" style="edgeStyle=orthogonalEdgeStyle;rounded=0;orthogonalLoop=1;jettySize=auto;html=1;" parent="1" source="d-a5o7gupjWQoE0AKnKX-24" target="d-a5o7gupjWQoE0AKnKX-40" edge="1">
          <mxGeometry relative="1" as="geometry" />
        </mxCell>
        <mxCell id="d-a5o7gupjWQoE0AKnKX-24" value="Display Rejection Message" style="rounded=1;whiteSpace=wrap;html=1;arcSize=40;fontColor=#000000;fillColor=#FFFFFF;strokeColor=light-dark(#000000, #ff9090);" parent="1" vertex="1">
          <mxGeometry x="40" y="630" width="120" height="40" as="geometry" />
        </mxCell>
        <mxCell id="d-a5o7gupjWQoE0AKnKX-55" style="edgeStyle=orthogonalEdgeStyle;rounded=0;orthogonalLoop=1;jettySize=auto;html=1;exitX=0.5;exitY=1;exitDx=0;exitDy=0;entryX=0;entryY=0.5;entryDx=0;entryDy=0;" parent="1" source="d-a5o7gupjWQoE0AKnKX-26" target="d-a5o7gupjWQoE0AKnKX-51" edge="1">
          <mxGeometry relative="1" as="geometry" />
        </mxCell>
        <mxCell id="d-a5o7gupjWQoE0AKnKX-26" value="Display Pending Message" style="rounded=1;whiteSpace=wrap;html=1;arcSize=40;fontColor=#000000;fillColor=#FFFFFF;strokeColor=light-dark(#000000, #ff9090);" parent="1" vertex="1">
          <mxGeometry x="185" y="630" width="120" height="40" as="geometry" />
        </mxCell>
        <mxCell id="d-a5o7gupjWQoE0AKnKX-32" value="Approved" style="text;strokeColor=none;align=center;fillColor=none;html=1;verticalAlign=middle;whiteSpace=wrap;rounded=0;" parent="1" vertex="1">
          <mxGeometry x="-110" y="580" width="60" height="30" as="geometry" />
        </mxCell>
        <mxCell id="d-a5o7gupjWQoE0AKnKX-33" value="Pending" style="text;strokeColor=none;align=center;fillColor=none;html=1;verticalAlign=middle;whiteSpace=wrap;rounded=0;" parent="1" vertex="1">
          <mxGeometry x="180" y="580" width="60" height="30" as="geometry" />
        </mxCell>
        <mxCell id="d-a5o7gupjWQoE0AKnKX-34" value="Rejected" style="text;strokeColor=none;align=center;fillColor=none;html=1;verticalAlign=middle;whiteSpace=wrap;rounded=0;" parent="1" vertex="1">
          <mxGeometry x="35" y="580" width="60" height="30" as="geometry" />
        </mxCell>
        <mxCell id="d-a5o7gupjWQoE0AKnKX-56" style="edgeStyle=orthogonalEdgeStyle;rounded=0;orthogonalLoop=1;jettySize=auto;html=1;exitX=0.5;exitY=1;exitDx=0;exitDy=0;entryX=0;entryY=0.5;entryDx=0;entryDy=0;" parent="1" source="d-a5o7gupjWQoE0AKnKX-40" target="d-a5o7gupjWQoE0AKnKX-51" edge="1">
          <mxGeometry relative="1" as="geometry">
            <Array as="points">
              <mxPoint x="100" y="875" />
            </Array>
          </mxGeometry>
        </mxCell>
        <mxCell id="d-a5o7gupjWQoE0AKnKX-40" value="System prompts the user to request again" style="rounded=1;whiteSpace=wrap;html=1;arcSize=40;fontColor=#000000;fillColor=#FFFFFF;strokeColor=light-dark(#000000, #ff9090);" parent="1" vertex="1">
          <mxGeometry x="40" y="750" width="120" height="40" as="geometry" />
        </mxCell>
        <mxCell id="d-a5o7gupjWQoE0AKnKX-51" value="" style="ellipse;html=1;shape=endState;fillColor=#000000;strokeColor=light-dark(#000000, #ff9090);" parent="1" vertex="1">
          <mxGeometry x="300" y="860" width="30" height="30" as="geometry" />
        </mxCell>
      </root>
    </mxGraphModel>
  </diagram>
</mxfile>
